<svg xmlns="http://www.w3.org/2000/svg" viewBox="0 0 387 515" style="">
    <defs>
        <style>.cls-1{fill:#fff;}.cls-1,.cls-2{stroke:#fff;stroke-miterlimit:10;stroke-width:3px;}</style>
    </defs>
    <title>20191201アセット 6</title>
    <g id="レイヤー_2" data-name="レイヤー 2">
        <g id="レイヤー_1-2" data-name="レイヤー 1">
            <path class="cls-1 LPKylzep_0"
                  d="M337.5,65.5h-80a64,64,0,0,0-128,0h-80a48,48,0,0,0-48,48v352a48,48,0,0,0,48,48h288a48,48,0,0,0,48-48v-352A48,48,0,0,0,337.5,65.5Zm-144-24a24,24,0,1,1-24,24A23.94,23.94,0,0,1,193.5,41.5Zm144,418a6,6,0,0,1-6,6H55.5a6,6,0,0,1-6-6v-340a6,6,0,0,1,6-6h42v36a12,12,0,0,0,12,12h168a12,12,0,0,0,12-12v-36h42a6,6,0,0,1,6,6Z"></path>
        </g>
        <g id="レイヤー_2-2" data-name="レイヤー 2">
            <path class="cls-2 LPKylzep_1" d="M69.5,187.5L319.5,187.5"></path>
            <path class="cls-2 LPKylzep_2" d="M69,257.5L319,257.5"></path>
            <path class="cls-2 LPKylzep_3" d="M68.5,327.5L318.5,327.5"></path>
            <path class="cls-2 LPKylzep_4" d="M68.5,397.5L318.5,397.5"></path>
        </g>
    </g>
    <style data-made-with="vivus-instant">.LPKylzep_0{stroke-dasharray:3161
        3163;stroke-dashoffset:3162;animation:LPKylzep_draw_0 6500ms linear 0ms infinite,LPKylzep_fade 6500ms linear 0ms
        infinite;}.LPKylzep_1{stroke-dasharray:250 252;stroke-dashoffset:251;animation:LPKylzep_draw_1 6500ms linear 0ms
        infinite,LPKylzep_fade 6500ms linear 0ms infinite;}.LPKylzep_2{stroke-dasharray:250
        252;stroke-dashoffset:251;animation:LPKylzep_draw_2 6500ms linear 0ms infinite,LPKylzep_fade 6500ms linear 0ms
        infinite;}.LPKylzep_3{stroke-dasharray:250 252;stroke-dashoffset:251;animation:LPKylzep_draw_3 6500ms linear 0ms
        infinite,LPKylzep_fade 6500ms linear 0ms infinite;}.LPKylzep_4{stroke-dasharray:250
        252;stroke-dashoffset:251;animation:LPKylzep_draw_4 6500ms linear 0ms infinite,LPKylzep_fade 6500ms linear 0ms
        infinite;}@keyframes LPKylzep_draw{100%{stroke-dashoffset:0;}}@keyframes
        LPKylzep_fade{0%{stroke-opacity:1;}93.84615384615384%{stroke-opacity:1;}100%{stroke-opacity:0;}}@keyframes
        LPKylzep_draw_0{1.5384615384615385%{stroke-dashoffset: 3162}36.56929724140478%{ stroke-dashoffset: 0;}100%{
        stroke-dashoffset: 0;}}@keyframes LPKylzep_draw_1{36.56929724140478%{stroke-dashoffset: 251}39.35004985413051%{
        stroke-dashoffset: 0;}100%{ stroke-dashoffset: 0;}}@keyframes
        LPKylzep_draw_2{39.35004985413051%{stroke-dashoffset: 251}42.13080246685624%{ stroke-dashoffset: 0;}100%{
        stroke-dashoffset: 0;}}@keyframes LPKylzep_draw_3{42.13080246685624%{stroke-dashoffset: 251}44.911555079581966%{
        stroke-dashoffset: 0;}100%{ stroke-dashoffset: 0;}}@keyframes
        LPKylzep_draw_4{44.911555079581966%{stroke-dashoffset: 251}47.69230769230769%{ stroke-dashoffset: 0;}100%{
        stroke-dashoffset: 0;}}
    </style>
</svg>